<svg width="83" height="26" viewBox="0 0 83 26" fill="none" xmlns="http://www.w3.org/2000/svg">
<g clip-path="url(#clip0_1401_731)">
<path d="M25.595 14.9454V18.7043C25.595 19.0373 25.331 19.3073 25.004 19.3073H23.7201C23.3931 19.3073 23.1291 19.0373 23.1291 18.7043V14.9454H20.9212V18.8933C20.9212 20.5072 21.9352 21.3562 23.4351 21.3562H25.595V21.3442C26.975 21.3442 27.8029 20.3452 27.8029 18.8933V14.9454H25.595Z" fill="#1CE682"/>
<path d="M17.0244 21.3562H19.2473V12.0595H17.0244V21.3562Z" fill="#1CE682"/>
<path d="M13.1515 14.9454V18.7043C13.1515 19.0373 12.8875 19.3073 12.5605 19.3073H11.2766C10.9496 19.3073 10.6856 19.0373 10.6856 18.7043V14.9454H8.47766V18.8933C8.47766 20.5072 9.49162 21.3562 10.9916 21.3562H13.1515V21.3442C14.5314 21.3442 15.3594 20.3452 15.3594 18.8933V14.9454H13.1515Z" fill="#1CE682"/>
<path d="M4.36783 14.9604H2.95189C2.45691 14.9604 2.20492 15.0954 2.20492 15.0954V12.0565H0V21.3532H2.20792V17.6003C2.20792 17.2673 2.47191 17.0004 2.79889 17.0004H4.08284C4.40983 17.0004 4.67382 17.2703 4.67382 17.6003V21.3532H6.88174V17.3093C6.88174 15.6084 5.76578 14.9544 4.36783 14.9544" fill="#1CE682"/>
<path d="M41.9384 10.1576C40.4954 9.74963 38.1885 9.20665 35.6626 9.87862C35.1946 10.0046 34.8737 10.2116 34.6517 10.6046C34.5407 10.7996 34.4387 11.0126 34.4927 11.2286C34.5407 11.4116 34.8047 11.4776 35.0147 11.5106C35.2186 11.5436 35.6776 11.5676 35.8006 11.4176C35.8666 11.3396 35.8666 11.1236 35.5306 11.0516C35.4076 11.0246 35.0687 11.0126 35.0417 10.9556C35.0417 10.9556 35.0537 10.9166 35.2396 10.8596C35.3206 10.8356 35.9236 10.5866 37.5676 10.6406C39.5235 10.7036 41.2334 11.1626 43.0393 11.8735C44.8063 12.5695 46.7952 13.8295 47.9592 15.3264C48.4001 15.8934 48.9461 16.8264 49.0181 17.6093C49.1921 19.5143 47.3322 21.1222 43.5523 20.9932C42.9074 20.9722 42.1214 20.8192 42.1214 20.8192L42.0434 17.1413C42.0434 17.1413 43.6423 17.1293 45.4093 17.7113C45.5592 17.7593 45.7122 17.8583 45.7242 18.0053C45.7332 18.1163 45.6462 18.2153 45.5473 18.3023C45.3643 18.4613 45.1123 18.5333 45.0553 18.5993C45.0163 18.6473 45.0163 18.7223 45.0673 18.7643C45.1993 18.8663 45.5263 18.9383 45.7452 18.9173C46.1922 18.8783 46.4862 18.6203 46.7112 18.2813C46.9512 17.9213 47.0862 17.0063 45.8172 16.4244C44.1763 15.6714 42.0314 15.8124 42.0314 15.8124C42.0314 15.8124 42.0194 15.3144 41.9984 14.9814C41.9624 14.4354 41.8094 13.3675 41.3144 13.0585C41.2244 13.0015 41.1134 12.9955 41.0504 13.0795C40.9544 13.2055 40.8584 13.6855 40.8374 13.8085C40.6514 14.9214 40.6604 15.9204 40.6514 15.9354C40.6454 15.9414 40.6394 15.9474 40.6334 15.9534C40.6124 15.9654 39.4275 16.1064 38.2815 16.6044C37.8255 16.8024 37.1716 17.1593 36.9736 17.6183C36.7186 18.2123 37.1686 18.8603 37.9275 19.5802C38.5695 20.1892 39.5175 20.8312 40.2195 21.1612C40.3995 21.2452 40.6094 21.3502 40.6094 21.3502C40.6094 21.3502 40.6544 21.7762 40.6904 22.0222C40.8224 22.9071 41.4974 22.7781 41.6834 22.7391C41.9864 22.6761 42.0434 22.4751 42.0854 22.2441C42.1094 22.1182 42.0974 21.9322 42.0974 21.9322C42.0974 21.9322 42.5534 22.0372 42.8624 22.0942C43.7563 22.2591 44.7253 22.2861 45.5653 22.1722C48.9251 21.7132 49.7741 20.1292 50.0411 19.7062C50.5061 18.9713 51.493 16.9224 48.5201 13.8835C47.8422 13.1875 45.8772 11.2766 41.9354 10.1606L41.9384 10.1576ZM37.4986 18.4433C37.3756 18.3173 37.2826 18.1823 37.3096 18.0173C37.3366 17.8583 37.6486 17.7173 37.8045 17.6723C39.3195 17.2253 40.6064 17.2013 40.6064 17.2013C40.6064 17.2013 40.5944 17.7443 40.5914 18.2963C40.5854 19.3373 40.6154 20.3962 40.6154 20.3962C40.6154 20.3962 38.9055 19.8982 37.4986 18.4433Z" fill="#F9F9F9"/>
<path d="M52.9 14.6154C53.6109 14.3365 54.1599 13.9375 54.7149 13.3675C55.0389 13.0375 55.3239 12.4945 55.2189 11.9995C55.1679 11.7536 55.0539 11.5856 54.8499 11.4086C54.7479 11.3216 54.5139 11.1956 54.3219 11.1596C54.2679 11.1476 54.2079 11.1446 54.1839 11.1296C54.1569 11.1116 54.1359 11.0756 54.1089 11.0426C53.9829 10.8836 53.7369 10.7336 53.5599 10.6736C53.014 10.4846 52.288 10.6286 51.79 10.8356C51.265 11.0576 50.7821 11.3846 50.4131 11.7776C49.4471 12.8125 49.8731 13.6315 49.9571 13.7845C50.0291 13.9135 50.1671 14.0545 50.1941 14.1895C50.2121 14.2705 50.1941 14.3755 50.2001 14.4714C50.2061 14.6904 50.3021 14.9124 50.4641 15.0594C50.5811 15.1614 50.7491 15.1944 50.92 14.9364C50.977 14.8494 51.07 14.6754 51.07 14.6754C51.07 14.6754 51.268 14.7894 51.742 14.8224C52.096 14.8464 52.582 14.7414 52.894 14.6184L52.9 14.6154ZM50.6231 13.3645C50.6231 13.3645 50.5901 13.2955 50.5691 13.2445C50.4221 12.8815 50.7461 12.4705 51.04 12.2185C51.613 11.7296 52.102 11.7416 52.102 11.7416C52.102 11.7416 51.985 11.8346 51.889 11.9215C51.052 12.6535 50.6231 13.3675 50.6231 13.3675V13.3645ZM51.88 13.3525C52.231 12.8995 52.882 12.3385 53.335 12.0685C53.6889 11.8555 53.9949 11.7986 54.2259 11.9005C54.3609 11.9605 54.4719 12.0835 54.4899 12.2485C54.5499 12.7585 53.9619 13.1845 53.5689 13.4155C52.675 13.9375 51.616 13.8205 51.589 13.7725C51.586 13.7605 51.802 13.4635 51.883 13.3555L51.88 13.3525Z" fill="#F9F9F9"/>
<path d="M73.1852 16.1244C72.0452 15.3324 70.2093 17.8403 69.3993 19.0823C69.2793 18.4493 69.7083 17.6483 69.7083 17.6483C69.7083 17.6483 70.3953 16.4604 70.4913 16.2174C70.5843 15.9744 70.6383 15.4764 70.5213 15.4254C70.4133 15.3774 70.2303 15.5364 70.2303 15.5364C68.6884 16.9194 68.4724 18.4553 68.4724 18.4553C68.3254 19.2833 68.4964 19.8622 68.7484 20.2672C67.8904 22.0942 67.4734 23.6841 67.5844 24.6261C67.6894 25.343 68.2024 25.862 68.5144 25.97C68.8294 26.102 68.8864 25.724 68.8864 25.724C69.1413 23.7771 69.5853 22.4751 70.1163 21.1882C71.7242 21.5572 72.9332 19.9942 73.3592 19.2473C73.6112 18.7973 73.7462 18.2003 73.7462 17.6363C73.7462 16.9944 73.5692 16.4004 73.1882 16.1244H73.1852ZM72.1382 19.2293C71.9552 19.4033 71.3433 19.7482 70.7103 19.8202C71.3133 18.6503 72.0632 17.7893 72.4772 17.3303C72.9602 16.7874 73.0232 17.2793 73.0232 17.2793C73.1372 18.2393 72.4382 18.9623 72.1352 19.2293H72.1382Z" fill="#F9F9F9"/>
<path d="M67.9084 20.1532C67.9864 19.8592 67.7194 19.5412 67.4794 19.4812C67.2544 19.4362 65.5295 19.7572 65.3255 19.8142C65.1035 19.8742 65.2025 19.6642 65.2025 19.6642L65.4695 18.7643C65.4695 18.7643 67.1164 18.7013 67.3534 18.6623C67.5754 18.6233 67.5874 18.4673 67.5874 18.4673C67.5874 18.4673 67.6174 18.2093 67.6084 17.9693C67.5844 17.7113 67.3774 17.7353 67.3774 17.7353C66.7414 17.6693 65.8655 17.7443 65.8655 17.7443L66.0875 17.0513C66.0875 17.0513 67.8394 16.9673 68.5024 16.8113C68.8444 16.7303 68.6434 16.3944 68.6434 16.3944C68.2294 15.5634 67.7494 15.6114 67.7494 15.6114C66.3724 15.5664 64.3715 15.9294 64.1525 16.0374C63.9485 16.1304 63.9695 16.2834 64.2365 16.6193C64.5215 16.9733 65.0015 16.9403 65.0015 16.9403L64.5785 17.8133C64.2335 17.8373 64.1165 17.9453 64.1165 17.9453C63.9185 18.1583 64.1915 18.7823 64.1915 18.7823C64.1915 18.7823 63.5946 20.1232 64.0265 20.8312C64.4915 21.5752 65.0435 21.5392 65.0435 21.5392C66.0905 21.6142 67.8124 20.5192 67.9054 20.1562L67.9084 20.1532Z" fill="#F9F9F9"/>
<path d="M61.8906 14.8254C61.8906 14.8254 61.6476 14.7114 61.5846 14.9544C61.5216 15.1944 61.6146 15.4524 61.6146 15.4524C62.2206 17.5103 62.3586 18.7283 62.3586 18.7283C62.3586 18.7283 62.3856 19.0853 62.3166 19.1063C62.2686 19.1423 62.2146 19.0913 62.2146 19.0913C62.1456 19.0913 61.4796 17.9783 61.4796 17.9783L61.3506 17.7593C60.6187 16.5774 60.1747 16.1754 60.1747 16.1754C60.0697 16.0794 59.8057 15.8094 59.4727 16.1784C59.1397 16.5504 58.8817 17.7413 58.7767 18.8603C58.6867 19.9792 58.7557 20.6152 58.9177 20.8822C59.0977 21.1552 59.4427 21.2452 59.7277 21.0142C60.0307 20.7832 59.9737 19.3072 60.0217 18.5513C60.0667 17.7923 60.1417 17.9273 60.1417 17.9273C60.2077 17.9093 60.5527 18.6053 60.5527 18.6053C60.5527 18.6053 61.4616 20.4682 62.0346 20.7442C62.6136 21.0202 63.0786 20.5762 63.2556 20.1622C63.4356 19.7452 63.7385 18.3623 63.2856 16.8293C62.8296 15.2964 61.8876 14.8254 61.8876 14.8254H61.8906Z" fill="#F9F9F9"/>
<path d="M52.432 18.7703C52.408 18.2603 52.348 16.9583 52.207 16.3704C52.144 16.1184 52.042 15.8874 51.793 15.7914C51.763 15.7794 51.73 15.7704 51.709 15.7674C51.553 15.7374 51.463 15.9504 51.421 16.0584C51.298 16.3734 51.208 17.1293 51.184 17.3633C51.112 18.0773 51.052 19.7662 51.175 20.6272C51.226 20.9872 51.346 21.2212 51.709 21.2992C51.856 21.3292 52.126 21.3232 52.246 21.2482C52.348 21.1852 52.423 21.0592 52.447 20.9512C52.513 20.6512 52.489 20.2252 52.474 19.9042C52.459 19.5262 52.447 19.1513 52.432 18.7673V18.7703Z" fill="#F9F9F9"/>
<path d="M58.3208 15.9234C57.5348 15.5064 56.2388 15.5034 55.4379 15.6054C54.6099 15.7074 53.5029 15.9654 53.029 16.6464C52.849 16.9074 52.744 17.3033 52.825 17.6303C52.873 17.8103 53.002 17.9483 53.191 18.0473C53.5269 18.2213 54.6459 18.2603 55.1439 18.3143C55.6149 18.3653 56.4788 18.4493 56.9558 18.6473C56.9558 18.6473 57.4088 18.8033 57.4058 19.0613C57.4058 19.1873 57.3098 19.2893 57.2138 19.3583C56.5058 19.8592 55.5339 20.0032 54.6669 19.9882C54.3729 19.9852 54.1329 19.9372 53.8329 19.8112C53.7069 19.7542 53.5419 19.6553 53.5629 19.4813C53.5989 19.2053 53.9139 19.1363 54.1659 19.1603C54.3069 19.1723 54.4899 19.2323 54.6279 19.2863C55.1829 19.5053 55.4349 19.6913 55.9239 19.6163C56.1068 19.5893 56.7368 19.4513 56.8238 19.1903C56.8448 19.1273 56.8148 19.0583 56.7668 19.0103C56.7008 18.9413 56.3198 18.7943 56.2178 18.7583C55.8459 18.6263 55.1409 18.5063 54.7479 18.4913C54.2349 18.4733 53.5269 18.5783 53.233 19.0043C52.969 19.3883 52.909 20.1622 54.2199 20.8132C54.8289 21.1162 55.5669 21.2512 56.2478 21.1762C56.6378 21.1312 57.7568 20.9572 58.1828 20.0662C58.4108 19.5863 58.3898 18.9473 58.1438 18.4913C57.9818 18.1913 57.7868 17.7923 56.3228 17.6093C56.0888 17.5793 54.3669 17.3813 54.2109 17.3573C54.1239 17.3423 53.7189 17.2943 53.8629 17.1413C53.9019 17.0964 54.0249 17.0634 54.0969 17.0454C54.9999 16.7994 56.1458 16.8264 57.0968 16.7724C57.3098 16.7604 57.7898 16.7304 58.0238 16.6554C58.2458 16.5864 58.4288 16.4304 58.4798 16.1844C58.5068 16.0554 58.4438 15.9924 58.3208 15.9294V15.9234Z" fill="#F9F9F9"/>
<path d="M81.7889 17.0363H79.086C79.056 16.1034 78.963 15.1794 78.804 14.2734C78.777 14.1174 78.642 14.0034 78.483 14.0034H77.754C77.613 14.0034 77.505 14.1324 77.529 14.2734C77.7 15.1794 77.799 16.1004 77.832 17.0363H75.0841C74.9581 17.0363 74.8561 17.1383 74.8561 17.2643V18.0923C74.8561 18.2183 74.9581 18.3203 75.0841 18.3203H77.832C77.799 19.2562 77.7 20.1772 77.529 21.0832C77.502 21.2242 77.61 21.3532 77.754 21.3532H78.483C78.642 21.3532 78.777 21.2392 78.804 21.0832C78.963 20.1772 79.056 19.2532 79.086 18.3173H81.7889C81.9149 18.3173 82.0169 18.2153 82.0169 18.0893V17.2613C82.0169 17.1353 81.9149 17.0333 81.7889 17.0333V17.0363Z" fill="#F9F9F9"/>
<path d="M44.5633 7.00472C44.6713 7.07972 44.8213 7.02272 44.9293 6.90873C45.8562 5.90977 46.8702 5.0398 48.0252 4.25083C55.6059 -0.92697 66.7354 -0.173999 73.2452 6.38675C75.3841 8.53167 76.5601 10.8326 77.178 12.6415C77.223 12.7735 77.346 12.8635 77.487 12.8635H78.234C78.39 12.8635 78.501 12.7105 78.45 12.5635C77.64 10.1636 76.0711 7.5297 73.7912 5.38779C66.9574 -1.04997 55.8849 -1.76694 48.1692 3.49786C46.9062 4.34983 45.6522 5.44178 44.5513 6.68974C44.4433 6.81273 44.4793 6.94773 44.5633 7.00472Z" fill="#F9F9F9"/>
</g>
<defs>
<clipPath id="clip0_1401_731">
<rect width="82.55" height="26" fill="white"/>
</clipPath>
</defs>
</svg>
